<svg
  aria-hidden="true"
  width="24"
  height="24"
  viewBox="0 0 32 32"
  fill="none"
  xmlns="http://www.w3.org/2000/svg"
>
  <path
    d="M14.0909 8.94544C14.7167 8.79897 15.3573 8.72575 16 8.72726C22.3636 8.72726 26 16 26 16C25.4482 17.0324 24.7901 18.0043 24.0364 18.9M17.9273 17.9273C17.6776 18.1952 17.3765 18.4101 17.042 18.5592C16.7074 18.7082 16.3463 18.7884 15.9801 18.7949C15.6139 18.8013 15.2501 18.734 14.9106 18.5968C14.571 18.4596 14.2625 18.2555 14.0035 17.9965C13.7445 17.7375 13.5404 17.429 13.4032 17.0894C13.266 16.7498 13.1987 16.3861 13.2051 16.0199C13.2116 15.6537 13.2917 15.2926 13.4408 14.958C13.5899 14.6235 13.8048 14.3224 14.0727 14.0727M21.4 21.4C19.846 22.5845 17.9537 23.2408 16 23.2727C9.63636 23.2727 6 16 6 16C7.13081 13.8926 8.69921 12.0514 10.6 10.6L21.4 21.4Z"
    stroke="#808080"
    stroke-width="1.5"
    stroke-linecap="round"
    stroke-linejoin="round"
  ></path>
  <path
    d="M6 6L26 26"
    stroke="#808080"
    stroke-width="1.5"
    stroke-linecap="round"
    stroke-linejoin="round"
  ></path>
</svg>
